{"title":"Feeding.Mr.Baldwin.2013.WEBRip.480p.x264.AAC-VYTO [P2PDL]","uid":10355599,"size":374250346,"categoryP":"video","categoryS":"movies","magnet":"?xt=urn:btih:906a8062957d3da4aaa6ec58aec3cbd3e277a222&amp;dn=Feeding.Mr.Baldwin.2013.WEBRip.480p.x264.AAC-VYTO+%5BP2PDL%5D&amp;tr=udp%3A%2F%2Ftracker.openbittorrent.com%3A80&amp;tr=udp%3A%2F%2Fopen.demonii.com%3A1337&amp;tr=udp%3A%2F%2Ftracker.coppersurfer.tk%3A6969&amp;tr=udp%3A%2F%2Fexodus.desync.com%3A6969","seeders":0,"leechers":3,"uploader":"ValidusVyto","files":-1,"time":1402725227,"description":"____    ____ ____    ____ .___________.  ______   \n     /   /      /   / |           | /  __    \n    /   /      /   /  `---|  |----`|  |  |  | \n        /     _    _/       |  |     |  |  |  | \n       /        |  |         |  |     |  `--'  | \n    __/         |__|         |__|      ______/  \n                                                  \nPresenting Small Encodes with quality for years!\n                                                                                                   \n                                                                                                   \n\nFeeding.Mr.Baldwin.2013.WEBRip.480p.x264.AAC-VYTO\n\n\nGenre: Comedy | Crime | Thriller &lt;a href=&quot;\nhttp://www.imdb.com/title/tt2201772/&quot; rel=&quot;nofollow&quot; target=&quot;_NEW&quot;&gt;\nhttp://www.imdb.com/title/tt2201772/&lt;/a&gt;\n\n\nGeneral\nFormat                         : MPEG-4\nFile size                      : 351 MiB\nOverall bit rate mode          : Variable\nOverall bit rate               : 520 Kbps\n\nVideo\nFormat                         : AVC\nBit rate                       : 477 Kbps\nWidth                          : 720 pixels\nHeight                         : 400 pixels\nDisplay aspect ratio           : 16:9\nFrame rate mode                : Constant\nFrame rate                     : 23.976 fps\nBit depth                      : 8 bits\nStream size                    : 322 MiB (92%)\n\nAudio\nFormat                         : AAC\nBit rate mode                  : Variable\nBit rate                       : 40.0 Kbps\nChannel(s)                     : 2 channels\nChannel positions              : Front: L R\nSampling rate                  : 48.0 KHz\nStream size                    : 27.0 MiB (8%)\nLanguage                       : English\n\nSubtitle                       : N/a\n &lt;a href=&quot;\nhttp://ultraimg.com/images/M5KcI.png&quot; rel=&quot;nofollow&quot; target=&quot;_NEW&quot;&gt;\nhttp://ultraimg.com/images/M5KcI.png&lt;/a&gt; &lt;a href=&quot;\nhttp://ultraimg.com/images/qRIMp.png&quot; rel=&quot;nofollow&quot; target=&quot;_NEW&quot;&gt;\nhttp://ultraimg.com/images/qRIMp.png&lt;/a&gt; &lt;a href=&quot;\nhttp://ultraimg.com/images/zBQ1N.png&quot; rel=&quot;nofollow&quot; target=&quot;_NEW&quot;&gt;\nhttp://ultraimg.com/images/zBQ1N.png&lt;/a&gt; &lt;a href=&quot;\nhttp://ultraimg.com/images/owlKr.png&quot; rel=&quot;nofollow&quot; target=&quot;_NEW&quot;&gt;\nhttp://ultraimg.com/images/owlKr.png&lt;/a&gt; &lt;a href=&quot;\nhttp://ultraimg.com/images/G8hc.png&quot; rel=&quot;nofollow&quot; target=&quot;_NEW&quot;&gt;\nhttp://ultraimg.com/images/G8hc.png&lt;/a&gt; &lt;a href=&quot;\nhttp://ultraimg.com/images/paH4.png&quot; rel=&quot;nofollow&quot; target=&quot;_NEW&quot;&gt;\nhttp://ultraimg.com/images/paH4.png&lt;/a&gt; &lt;a href=&quot;\nhttp://ultraimg.com/images/YGSHz.png&quot; rel=&quot;nofollow&quot; target=&quot;_NEW&quot;&gt;\nhttp://ultraimg.com/images/YGSHz.png&lt;/a&gt; &lt;a href=&quot;\nhttp://ultraimg.com/images/kAm0.png&quot; rel=&quot;nofollow&quot; target=&quot;_NEW&quot;&gt;\nhttp://ultraimg.com/images/kAm0.png&lt;/a&gt;\n\n----------------------------------------------------------------------------------------------------\n\n\nRecommend to you to use latest version of VLC player. Install K-Lite Codec Pack or shark007 codecs\nin case of any kind of problem in playback (For non-VLC Media Player users). Alternatively, install\nCore AVC codecs, the fastest decoder that there is coupled with Community Center Codec Pack and play\non Windows Media Player Classic. Check sample to be sure.\n\nEncoder Notes:Looking For Early Access To Anything You Can Provide DVDScr, R5, DVDR, BluRay, Direct\nAudio, Music Releases and Seedboxes. We require dedicated servers, so as to do more \nand fast releases of movies.","torrent":{"xt":"urn:btih:906a8062957d3da4aaa6ec58aec3cbd3e277a222","amp;dn":"Feeding.Mr.Baldwin.2013.WEBRip.480p.x264.AAC-VYTO+%5BP2PDL%5D","amp;tr":["udp%3A%2F%2Ftracker.openbittorrent.com%3A80","udp%3A%2F%2Fopen.demonii.com%3A1337","udp%3A%2F%2Ftracker.coppersurfer.tk%3A6969","udp%3A%2F%2Fexodus.desync.com%3A6969"],"infoHash":"906a8062957d3da4aaa6ec58aec3cbd3e277a222","infoHashBuffer":{"type":"Buffer","data":[144,106,128,98,149,125,61,164,170,166,236,88,174,195,203,211,226,119,162,34]},"announce":[],"urlList":[]}}